<svg width="30" height="26" viewBox="0 0 30 26" fill="none" xmlns="http://www.w3.org/2000/svg">
<path d="M26.4126 3.48176H22.0842C21.8783 3.48176 21.6819 3.39495 21.5429 3.24253L19.2939 0.776096C19.1549 0.623674 18.9585 0.536865 18.7526 0.536865H10.5947C10.3888 0.536865 10.1924 0.623674 10.0534 0.776096L7.80444 3.24253C7.66545 3.39495 7.46904 3.48176 7.26315 3.48176H2.93474C2.1564 3.48176 1.40993 3.79202 0.859564 4.3443C0.309194 4.89657 0 5.64561 0 6.42665V22.6236C0 23.4046 0.309194 24.1536 0.859564 24.7059C1.40993 25.2582 2.1564 25.5684 2.93474 25.5684H26.4126C27.191 25.5684 27.9374 25.2582 28.4878 24.7059C29.0382 24.1536 29.3474 23.4046 29.3474 22.6236V6.42665C29.3474 5.64561 29.0382 4.89657 28.4878 4.3443C27.9374 3.79202 27.191 3.48176 26.4126 3.48176ZM26.4126 21.8873C26.4126 22.2939 26.0841 22.6236 25.6789 22.6236H3.66842C3.26322 22.6236 2.93474 22.2939 2.93474 21.8873V7.16287C2.93474 6.75627 3.26322 6.42665 3.66842 6.42665H8.55443C8.76032 6.42665 8.95673 6.33984 9.09572 6.18742L11.3447 3.72099C11.4837 3.56856 11.6801 3.48176 11.886 3.48176H17.4614C17.6672 3.48176 17.8637 3.56857 18.0026 3.72099L20.2516 6.18742C20.3906 6.33984 20.587 6.42665 20.7929 6.42665H25.6789C26.0841 6.42665 26.4126 6.75627 26.4126 7.16287V21.8873Z" fill="#8E8E8E"/>
<path d="M14.6737 7.89909C13.117 7.89909 11.6241 8.51962 10.5233 9.62417C9.4226 10.7287 8.80421 12.2268 8.80421 13.7889C8.80421 15.3509 9.4226 16.849 10.5233 17.9536C11.6241 19.0581 13.117 19.6787 14.6737 19.6787C16.2304 19.6787 17.7233 19.0581 18.824 17.9536C19.9248 16.849 20.5432 15.3509 20.5432 13.7889C20.5432 12.2268 19.9248 10.7287 18.824 9.62417C17.7233 8.51962 16.2304 7.89909 14.6737 7.89909ZM14.6737 17.3227C13.7397 17.3227 12.8439 16.9504 12.1835 16.2877C11.523 15.625 11.152 14.7261 11.152 13.7889C11.152 12.8516 11.523 11.9528 12.1835 11.2901C12.8439 10.6273 13.7397 10.255 14.6737 10.255C15.6077 10.255 16.5034 10.6273 17.1639 11.2901C17.8243 11.9528 18.1954 12.8516 18.1954 13.7889C18.1954 14.7261 17.8243 15.625 17.1639 16.2877C16.5034 16.9504 15.6077 17.3227 14.6737 17.3227Z" fill="#8E8E8E"/>
</svg>
