<svg width="6" height="22" viewBox="0 0 6 22" fill="none" xmlns="http://www.w3.org/2000/svg">
<path fill-rule="evenodd" clip-rule="evenodd" d="M3 4C3.55228 4 4 3.55228 4 3C4 2.44772 3.55228 2 3 2C2.44772 2 2 2.44772 2 3C2 3.55228 2.44772 4 3 4ZM3 12C3.55228 12 4 11.5523 4 11C4 10.4477 3.55228 10 3 10C2.44772 10 2 10.4477 2 11C2 11.5523 2.44772 12 3 12ZM3 20C3.55228 20 4 19.5523 4 19C4 18.4477 3.55228 18 3 18C2.44772 18 2 18.4477 2 19C2 19.5523 2.44772 20 3 20ZM6 3C6 4.65685 4.65685 6 3 6C1.34315 6 0 4.65685 0 3C0 1.34315 1.34315 0 3 0C4.65685 0 6 1.34315 6 3ZM6 11C6 12.6569 4.65685 14 3 14C1.34315 14 0 12.6569 0 11C0 9.34315 1.34315 8 3 8C4.65685 8 6 9.34315 6 11ZM3 22C4.65685 22 6 20.6569 6 19C6 17.3431 4.65685 16 3 16C1.34315 16 0 17.3431 0 19C0 20.6569 1.34315 22 3 22Z" fill="black"/>
</svg>
